HIERARCHY
ROOT Hips
{
	OFFSET 0.000000 0.000000 0.000000 
	CHANNELS 6 Xposition Yposition Zposition Zrotation Yrotation Xrotation
	JOINT LeftUpLeg
	{
		OFFSET 1.363060 -1.794630 0.839290 
		CHANNELS 3 Zrotation Yrotation Xrotation
		JOINT LeftLeg
		{
			OFFSET 2.448110 -6.726130 0.000000 
			CHANNELS 3 Zrotation Yrotation Xrotation
			JOINT LeftFoot
			{
				OFFSET 2.562200 -7.039590 0.000000 
				CHANNELS 3 Zrotation Yrotation Xrotation
				JOINT LeftToeBase
				{
					OFFSET 0.157640 -0.433110 2.322550 
					CHANNELS 3 Zrotation Yrotation Xrotation
					End Site
					{
						OFFSET 0.000000 0.000000 0.000000 
					}
				}
			}
		}
	}
	JOINT RightUpLeg
	{
		OFFSET -1.305520 -1.794630 0.839290 
		CHANNELS 3 Zrotation Yrotation Xrotation
		JOINT RightLeg
		{
			OFFSET -2.542530 -6.985550 0.000000 
			CHANNELS 3 Zrotation Yrotation Xrotation
			JOINT RightFoot
			{
				OFFSET -2.568260 -7.056230 0.000000 
				CHANNELS 3 Zrotation Yrotation Xrotation
				JOINT RightToeBase
				{
					OFFSET -0.164730 -0.452590 2.363150 
					CHANNELS 3 Zrotation Yrotation Xrotation
					End Site
					{
						OFFSET 0.000000 0.000000 0.000000 
					}
				}
			}
		}
	}
	JOINT Spine
	{
		OFFSET 0.028270 2.035590 -0.193380 
		CHANNELS 3 Zrotation Yrotation Xrotation
		JOINT Spine1
		{
			OFFSET 0.056720 2.048850 -0.042750 
			CHANNELS 3 Zrotation Yrotation Xrotation
			JOINT Neck1
			{
				OFFSET -0.054170 1.746240 0.172020 
				CHANNELS 3 Zrotation Yrotation Xrotation
				JOINT Head
				{
					OFFSET 0.104070 1.761360 -0.123970 
					CHANNELS 3 Zrotation Yrotation Xrotation
					End Site
					{
						OFFSET 0.000000 0.000000 0.000000 
					}
				}
			}
			JOINT LeftArm
			{
				OFFSET 3.362410 1.200890 -0.311210 
				CHANNELS 3 Zrotation Yrotation Xrotation
				JOINT LeftForeArm
				{
					OFFSET 4.983000 -0.000000 -0.000000 
					CHANNELS 3 Zrotation Yrotation Xrotation
					JOINT LeftHand
					{
						OFFSET 3.483560 -0.000000 -0.000000 
						CHANNELS 3 Zrotation Yrotation Xrotation
						JOINT LeftHandIndex1
						{
							OFFSET 0.715260 -0.000000 -0.000000 
							CHANNELS 3 Zrotation Yrotation Xrotation
							End Site
							{
								OFFSET 0.000000 0.000000 0.000000 
							}
						}
					}
				}
			}
			JOINT RightArm
			{
				OFFSET -3.136600 1.374050 -0.404650 
				CHANNELS 3 Zrotation Yrotation Xrotation
				JOINT RightForeArm
				{
					OFFSET -5.241900 -0.000000 -0.000000 
					CHANNELS 3 Zrotation Yrotation Xrotation
					JOINT RightHand
					{
						OFFSET -3.444170 -0.000000 -0.000000 
						CHANNELS 3 Zrotation Yrotation Xrotation
						JOINT RightHandIndex1
						{
							OFFSET -0.622530 -0.000000 -0.000000 
							CHANNELS 3 Zrotation Yrotation Xrotation
							End Site
							{
								OFFSET 0.000000 0.000000 0.000000 
							}
						}
					}
				}
			}
		}
	}
}
MOTION
Frames: 7
Frame Time: 0.041667
20.939773 17.883274 -15.245065 0.861838 39.193471 -5.845037 -12.772726 -6.307638 -14.863056 0.546004 8.669161 25.999772 1.070645 -7.485197 2.930971 2.866700 -10.476000 -30.532400 21.141508 -6.636340 1.427506 -0.703776 -6.505586 22.357093 -1.172898 0.071108 -16.364424 -5.277700 -13.689900 42.009200 1.059185 6.187149 -4.771781 -4.819309 3.144376 -10.410020 7.802899 10.977288 9.846457 -5.423800 6.523900 4.502800 1.637671 10.961777 -8.833005 12.878765 -20.578957 -7.976307 3.543819 -5.344182 -81.791190 -7.125000 0.000000 0.000000 -1.607081 -3.142983 -24.732516 -8.724137 14.325805 -3.972665 1.664824 -0.818482 -25.124255 7.125000 0.000000 0.000000 
20.953429 17.885297 -15.256900 0.863547 38.782920 -5.796752 -12.665367 -6.502676 -14.832733 0.475491 8.513499 25.546755 1.176509 -8.538882 3.398305 3.011900 -10.714300 -31.322200 21.077357 -6.442472 1.318205 -0.728602 -6.548713 22.473296 -1.209033 0.346544 -16.164345 -5.370000 -13.788700 42.397500 1.057193 6.050484 -4.775647 -4.825394 3.052414 -10.483145 7.783953 10.782100 10.192476 -5.475300 6.512800 4.724500 1.230451 10.283714 -7.933532 12.925611 -20.723918 -8.000829 3.567309 -5.208831 -82.332407 -7.125000 0.000000 0.000000 -0.943790 -2.596169 -24.009795 -8.776101 14.415126 -3.965899 1.566961 -0.834295 -25.095279 7.125000 0.000000 0.000000 
20.965872 17.880644 -15.268028 0.851755 38.426029 -5.722888 -12.542318 -6.613739 -14.796704 0.397559 8.319075 25.008408 1.277911 -10.014100 4.795791 2.365400 -9.588900 -27.655600 21.054616 -6.306768 1.156429 -0.758541 -6.623757 22.667493 -1.217308 0.414286 -16.111675 -5.298300 -13.712100 42.096000 1.126424 5.779364 -4.697372 -4.399867 2.966229 -9.997501 7.790867 10.683106 10.548368 -5.459700 6.521300 4.964200 0.562433 9.619598 -6.510731 13.004302 -20.932543 -8.005311 3.445570 -5.254052 -82.269579 -7.125000 0.000000 0.000000 -0.564094 -1.836398 -23.314747 -8.810256 14.528822 -3.936648 1.499139 -0.869745 -25.076959 7.125000 0.000000 0.000000 
20.978921 17.877710 -15.282898 1.108918 38.092861 -5.361153 -12.650580 -6.826461 -14.808293 0.299714 8.120917 24.429333 1.331272 -10.985202 5.697594 1.952700 -8.766900 -25.068700 20.807818 -6.073510 0.852863 -0.793051 -6.720118 22.894366 -1.230733 0.498524 -16.069629 -5.193400 -13.598400 41.651800 1.263224 5.393697 -4.554120 -3.429090 2.895850 -9.096587 7.740258 10.839590 10.785615 -5.426200 6.599500 5.147300 -0.432597 8.962531 -5.720135 12.979078 -21.084974 -7.965529 3.289718 -5.302732 -82.006921 -7.125000 0.000000 0.000000 -0.532627 -0.930240 -22.643510 -8.869922 14.716596 -3.904855 1.431495 -0.867065 -25.100458 7.125000 0.000000 0.000000 
20.992577 17.878621 -15.299387 1.445060 37.761829 -5.061591 -12.838125 -7.119575 -14.738098 0.198359 7.911690 23.828314 1.370737 -11.835912 6.349041 1.760600 -8.348600 -23.777900 20.440579 -5.863804 0.593631 -0.839160 -6.813231 23.137072 -1.256898 0.708250 -15.901447 -5.206200 -13.612300 41.705900 1.339442 5.079088 -4.512558 -2.803166 2.791355 -8.890565 7.707337 10.886238 11.037428 -5.376000 6.652000 5.337000 -1.179213 8.357351 -4.968810 12.964925 -21.174653 -7.926314 3.246816 -5.267941 -82.128385 -7.125000 0.000000 0.000000 -0.248314 -0.317130 -21.518190 -8.999979 14.922640 -3.911564 1.349359 -0.854975 -25.152737 7.125000 0.000000 0.000000 
21.008864 17.880239 -15.314965 1.604194 37.449262 -5.022542 -12.901371 -7.532870 -14.514614 0.105204 7.698570 23.249987 1.390108 -12.690847 7.382179 1.304500 -7.235500 -20.414900 20.139998 -5.823583 0.469510 -0.886717 -6.877151 23.327207 -1.316850 1.101330 -15.692346 -5.339200 -13.755900 42.268400 1.274106 4.899120 -4.557610 -3.097933 2.639030 -9.202190 7.886806 10.560186 11.418596 -5.210900 6.580400 5.560300 -1.320558 7.672422 -3.443894 13.044633 -21.242216 -7.862267 3.234946 -5.243331 -82.455529 -7.125000 0.000000 0.000000 0.646624 -0.019667 -20.258008 -9.159168 15.098139 -3.965977 1.271859 -0.903315 -25.178714 7.125000 0.000000 0.000000 
21.026971 17.884184 -15.332263 1.628641 37.088739 -5.037970 -12.853908 -7.880156 -14.332957 0.018643 7.501811 22.713536 1.395000 -13.306335 8.463788 0.851900 -5.886500 -16.455600 19.964314 -5.796590 0.351149 -0.920041 -6.921212 23.454415 -1.364375 1.431975 -15.498635 -5.381300 -13.800700 42.445000 1.228305 4.727196 -4.582214 -3.374059 2.499310 -9.408723 8.006098 10.318451 11.727046 -5.078200 6.528100 5.721900 -1.544618 7.071685 -1.837575 13.151477 -21.348634 -7.797066 3.171449 -5.220249 -82.754832 -7.125000 0.000000 0.000000 1.484033 0.330765 -19.197050 -9.337797 15.313412 -4.037227 1.175850 -0.965687 -25.216793 7.125000 0.000000 0.000000 
